<svg xmlns="http://www.w3.org/2000/svg" viewBox="0 0 612 476.6" fill="#fff" xmlns:v="https://vecta.io/nano"><path d="M538.3 218.5L428.8 102.6c-6.7-7.1-18-7.5-25.1-.7-7.1 6.7-7.5 18-.7 25.1l98 103.7-98 103.8c-6.7 7.1-6.4 18.4.7 25.1 3.4 3.2 7.8 4.8 12.2 4.8 4.7 0 9.4-1.9 12.9-5.6l109.4-116c6.5-6.8 6.5-17.5.1-24.3zM210 334.4l-98-103.7 98-103.8c6.7-7.1 6.4-18.4-.7-25.1s-18.4-6.4-25.1.7l-109.5 116c-6.5 6.8-6.5 17.5 0 24.4l109.4 116c3.5 3.7 8.2 5.6 12.9 5.6 4.4 0 8.7-1.6 12.2-4.8 7.2-6.9 7.5-18.1.8-25.3zm91.1-269.5l61.6 8.6c3.2.4 4.9 4 3.3 6.7l-63.5 110.4c-1.6 2.8.1 6.3 3.3 6.7l95.1 13.3c3.4.5 5 4.4 3 7.1L280.1 389.5c-3.1 4.4-9.9.6-7.9-4.4L319 271c1.2-2.8-.7-5.9-3.7-6.2l-92.2-9.2c-3-.3-4.9-3.5-3.7-6.3l77-181.8c.7-1.8 2.7-2.9 4.7-2.6z"/></svg>