<svg enable-background="new 0 0 330 295.6" viewBox="0 0 330 295.6" xmlns="http://www.w3.org/2000/svg"><g fill="none"><path d="m165.1 67.2c6.1-.1 10.4-4.4 10.3-10.5s-4.4-10.4-10.6-10.3-10.4 4.5-10.3 10.6 4.4 10.2 10.6 10.2z"/><path d="m60.8 228.4c-6.2 0-10.3 4.2-10.2 10.5 0 6.3 4.2 10.4 10.4 10.4s10.3-4.3 10.3-10.5c-.1-6.3-4.3-10.4-10.5-10.4z"/><path d="m144.4 183.7c-1-9.3 3.9-17.6 12.4-20.7 2.5-.9 3-2.2 3-4.6-.1-21.7-.1-43.3-.1-65v-5.5l-.7-.2-80.1 138 .4.5c.8-.5 1.7-.9 2.6-1.4 19.9-11.8 39.7-23.7 59.7-35.4 2.5-1.5 3.1-2.9 2.8-5.7z"/><path d="m154.5 182.3c.1 6.1 4.5 10.4 10.6 10.3s10.4-4.5 10.3-10.6-4.4-10.4-10.6-10.3c-6.1 0-10.4 4.5-10.3 10.6z"/><path d="m170.3 88.4c0 23.8 0 47.6-.1 71.4-.2 1.2.6 2.4 1.8 2.7 10.2 4.2 14.6 11.4 13.4 22.2-.2 2.2.3 3.3 2.3 4.4 14.9 8.7 29.6 17.5 44.4 26.3l18 10.7.8-.7c-26.7-45.9-53.4-91.9-80.1-137.9-.3.6-.5.7-.5.9z"/><path d="m269.3 228.4c-6.2-.1-10.5 4-10.6 10.2s3.9 10.6 10.1 10.7 10.5-4 10.6-10.2c0-6.2-3.9-10.6-10.1-10.7z"/><path d="m182.4 198c-2-1.2-3-.5-4.5.6-7.6 5.7-18 5.8-25.6.1-2.1-1.6-3.5-1.4-5.5-.1-12 7.3-24.2 14.4-36.3 21.6-7.2 4.3-14.3 8.6-22.1 13.3h153.1c-.3-.3-.7-.7-1-.9-19.4-11.6-38.8-23-58.1-34.6z"/></g><path d="m287.2 228.3c-4.5-8.2-14.7-12.2-24.1-9.2-2.8.9-3.8.2-5.1-2.1-26.7-46.2-53.6-92.4-80.5-138.6-1.6-2.8-1.9-4.4 1.3-5.9 1.9-.9 3.2-2.9 4.2-4.8 4.1-8 4.1-16.1-1.2-23.5-5.3-7.5-13-9.3-21.5-7.7s-13.9 7.1-15.5 15.6.1 16.1 7.8 21.3c2 1.3 1.6 2.2.7 3.8-27.2 46.8-54.4 93.7-81.6 140.5-1.1 1.8-1.9 2.2-4 1.6-15.1-4.7-28.3 5.7-27.4 21.4.5 9.4 7.5 17.2 16.8 18.6 10.7 1.6 19.6-3.1 22.8-12.3.8-2.4 1.9-2.9 4.3-2.9 27 .1 53.9 0 80.9 0 26.6 0 53.2 0 79.8-.1 2.9 0 4.9.2 5.7 3.7.8 3.4 3.4 6.1 6.3 8.2 7.7 5.4 19.5 4.8 26.3-1.4 7-6.2 8.7-17.7 4-26.2zm-226.2 21c-6.2 0-10.4-4.1-10.4-10.4s4.1-10.5 10.2-10.5c6.2 0 10.4 4.1 10.4 10.4.1 6.3-4.1 10.5-10.2 10.5zm103.9-203c6.1-.1 10.5 4.2 10.6 10.3s-4.2 10.5-10.3 10.5c-6.1.1-10.5-4.1-10.5-10.3-.2-6.1 4.1-10.4 10.2-10.5zm10.5 135.7c.1 6.1-4.2 10.5-10.3 10.6s-10.5-4.2-10.6-10.3 4.2-10.5 10.3-10.6 10.5 4.2 10.6 10.3zm-93.5 42.7c-.8.5-1.7.9-2.6 1.4l-.4-.5 80.1-138 .7.2v5.5c0 21.7 0 43.3.1 65 0 2.4-.5 3.7-3 4.6-8.4 3.1-13.4 11.4-12.4 20.7.3 2.8-.3 4.2-2.8 5.6-20 11.8-39.8 23.7-59.7 35.5zm6.4 8.8c7.8-4.7 15-9 22.1-13.3 12.1-7.2 24.2-14.3 36.3-21.6 2.1-1.2 3.4-1.5 5.5.1 7.6 5.7 18.1 5.7 25.6-.1 1.5-1.1 2.5-1.8 4.5-.6 19.3 11.6 38.6 23 58 34.5.4.3.7.6 1 .9h-153zm161.8-7.4-18-10.6c-14.8-8.8-29.6-17.6-44.4-26.3-1.9-1.1-2.5-2.2-2.3-4.4 1.1-10.8-3.3-18-13.4-22.2-1.2-.3-2-1.5-1.8-2.7 0-23.8.1-47.6.1-71.4 0-.2.2-.4.6-.9 26.7 46.1 53.4 92.1 80.1 137.9zm18.7 23.2c-6.2-.1-10.2-4.4-10.1-10.7s4.4-10.3 10.6-10.2 10.2 4.4 10.1 10.7c-.1 6.4-4.4 10.4-10.6 10.2z"/></svg>