<svg enable-background="new 0 0 512 512" viewBox="0 0 512 512" xmlns="http://www.w3.org/2000/svg"><path d="m512 179.462c0-37.968-14.923-73.527-42.021-100.128-2.955-2.901-7.703-2.858-10.607.098-2.901 2.955-2.857 7.704.099 10.606 24.201 23.758 37.529 55.515 37.529 89.424 0 54.47-35.334 102.603-86.663 119.208l-69.678-151.643c-3.44-7.485-10.693-12.135-18.931-12.135-8.237 0-15.491 4.65-18.931 12.135l-41.854 91.088c-9.552-17.986-14.554-38.014-14.554-58.654 0-69.094 56.212-125.305 125.305-125.305 20.949 0 41.677 5.269 59.942 15.239 3.636 1.986 8.191.646 10.176-2.99 1.984-3.636.646-8.192-2.99-10.176-20.462-11.169-43.675-17.073-67.128-17.073-57.192 0-106.493 34.401-128.319 83.593l-97.823-56.477c-2.32-1.34-5.18-1.34-7.5 0l-134.302 77.539c-.267.154-.517.326-.757.507-.063.048-.123.098-.185.148-.184.147-.359.301-.526.463-.052.051-.105.1-.156.153-.422.434-.786.91-1.086 1.422-.033.056-.062.114-.093.171-.113.204-.216.413-.309.626-.032.074-.065.147-.095.222-.103.259-.196.522-.27.79-.004.015-.01.029-.014.044-.076.284-.131.574-.174.866-.011.077-.019.155-.028.233-.028.24-.044.481-.048.723-.001.041-.009.083-.009.127v155.078c0 2.68 1.43 5.155 3.75 6.495l134.302 77.539c.29.167.589.314.893.44.924.382 1.892.567 2.85.567.327 0 .652-.022.974-.064.063-.008.125-.027.188-.037.255-.04.51-.084.76-.15.116-.031.228-.078.343-.114.196-.062.393-.119.583-.197.091-.037.177-.088.267-.129.21-.096.421-.191.623-.306.007-.004.014-.006.02-.01l62.434-36.047-29.45 64.092c-.451.982-.685 2.05-.685 3.131 0 15.681 15.597 29.087 45.105 38.77 26.493 8.693 61.57 13.481 98.771 13.481s72.278-4.788 98.772-13.481c29.508-9.683 45.105-23.089 45.105-38.77 0-1.081-.233-2.149-.685-3.131l-11.083-24.122c-1.729-3.763-6.182-5.415-9.946-3.684-3.765 1.729-5.413 6.182-3.685 9.946l10.274 22.362c-2.751 15.426-51.225 35.88-128.753 35.88s-126.002-20.453-128.753-35.88l123.453-268.676c1.408-3.066 4.176-3.398 5.3-3.398s3.892.331 5.3 3.398l72.401 157.57c.002.004.003.008.005.011l26.156 56.925c1.73 3.763 6.181 5.415 9.947 3.684 3.764-1.729 5.413-6.183 3.684-9.946l-22.574-49.131c56.567-19.097 95.354-72.549 95.354-132.94zm-370.198 39.722-72.796-42.029c-3.588-2.073-8.174-.842-10.245 2.745s-.842 8.174 2.745 10.245l72.796 42.029v137.758l-119.302-68.879v-137.757l18.403 10.626c3.587 2.071 8.173.842 10.245-2.745 2.071-3.587.842-8.174-2.745-10.245l-18.403-10.626 119.302-68.879 96.177 55.528c-3.076 9.655-5.13 19.761-6.042 30.19zm77.016 110.613-69.516 40.136v-137.759l82.186-47.45c.922 24.975 8.413 48.997 21.815 70.022z"/></svg>