<svg viewBox="0 0 262.38 360.15" xmlns="http://www.w3.org/2000/svg"><g fill="#2c4964" transform="translate(-118.81 -69.92)"><path d="m303.87 398.79q19-17.28 38.09-34.5c1.48-1.34 2.45-2.21-.32-3.3-14.81-5.85-29.56-11.84-44.33-17.76a10.33 10.33 0 0 0 -4.23-1.07c1.29 4.69 2.76 9.1 3 13.76.69 11.2 0 22.17-5.4 32.34-6.45 12.06-13 24.1-19.38 36.18-.93 1.77-2.09 3.48-2.47 5.64a5.57 5.57 0 0 0 2.56-1.8q16.27-14.74 32.48-29.49z"/><path d="m207.32 341.43-40 16c-3.11 1.25-6.2 2.54-9.32 3.76-1.55.6-2 1.32-.52 2.51.72.59 1.36 1.28 2.05 1.9q12.69 11.56 25.41 23.11 22.44 20.38 44.89 40.73c.27.24.56.85 1.21.18-1.12-1.21-1-2.92-1.78-4.3-5.59-10.4-10.95-20.94-16.9-31.13a62.82 62.82 0 0 1 -8.63-36.87c.33-5.32 1.77-10.25 3.59-15.89z"/><path d="m247.89 380.66c1.58-1.61 2.59-1.4 4.08.12 5.4 5.52 10.92 10.93 16.39 16.38.73.73 1.4 1.53 2.57 1.45 1.59-.11 7.1-5.55 7.19-7.2-.05-1.13-1-1.84-1.77-2.61-5-5-10.08-10-15.09-15-3.23-3.21-3.26-3.28 0-6.6 4.31-4.39 8.74-8.66 13-13.05s5.76-3.58.06-9.19c-3.15-3.09-3.5-3.15-6.74 0-5.11 5-10.2 10.08-15.21 15.22-1.64 1.68-2.86 1.89-4.6.1-4.66-4.83-9.46-9.51-14.2-14.26-4.59-4.59-4.59-4.6-9.15 0-3.32 3.33-3.29 4 .16 7.41 4.85 4.77 9.7 9.53 14.49 14.35 2.78 2.8 2.73 3 0 5.79-5.11 5-10.23 10.06-15.31 15.12-2.45 2.45-2.42 3 0 5.43.91.94 1.92 1.78 2.76 2.77 1.68 2 3.12 2.09 5 .11 5.38-5.48 10.97-10.82 16.37-16.34z"/><path d="m160.79 265c1.57-.27 3-.85 2.94-2.75s-1.8-1.63-3-1.81a81.21 81.21 0 0 1 -10.15-1.85c-14.53-4.13-23.47-22.59-22.28-35.58.57-6.22 6.33-9.56 11.39-6.73 3.63 2 6.14 8 5.46 13-.63 4.67-3 7.1-8.11 8.31-.86.21-2 .15-2.21 1.34a2.76 2.76 0 0 0 1.4 2.57 5.62 5.62 0 0 0 3.13 1.07c5.21.37 9.52-1.34 12.7-5.6 5-6.67 3.21-18.19-3.7-24-6.41-5.4-13.41-4.44-20.25-1.4s-9.66 8.72-9.29 15.69c-.34 9.78 6 24.55 14.91 30.67 8.27 5.65 16.97 8.88 27.06 7.07z"/><path d="m345.35 227.62c.06 1.21.06 2.43.19 3.63.83 7.67 10.61 13.71 17.39 10.77 1.25-.55 2.45-1.28 2.35-2.79s-1.52-1.45-2.56-1.75c-5.88-1.68-7.87-4.21-7.94-10.17a14.65 14.65 0 0 1 2-7.46c2.2-3.87 6.21-5.42 10-4 3.51 1.34 4.85 4.17 5.07 7.67.46 7.32-1.68 14-5.22 20.28-5.22 9.29-12.78 15.12-23.68 16.06-1.67.15-3.32.5-5 .79a1.82 1.82 0 0 0 -1.7 1.59 2.23 2.23 0 0 0 1.06 2.15 5.35 5.35 0 0 0 2.35.76 32.24 32.24 0 0 0 19.3-3c14.8-6.82 22.08-20.78 22.2-35.33.06-7.32-3.23-12.81-10.12-15.6s-13.94-3.6-20.06 2.26a18.34 18.34 0 0 0 -5.63 14.14z"/><path d="m156.82 209.21c3 6.51 6.22 12.86 7.25 20.14 1.56 11.14 3.55 22.23 5.34 33.34 1.43 8.82 2.78 17.6 6.9 25.75 3.95 7.82 9.7 14 15.89 20 8.57 8.31 17.15 16.59 27.16 23.17 6.48 4.26 13.17 8.15 21.37 8 6.06-.1 12.13-.22 18.18 0s11.2-1.55 16.3-4.21a90.88 90.88 0 0 0 12.11-8c6.88-5.15 13-11.15 19.28-17 6.92-6.41 13.35-13.24 17.79-21.72 5.91-11.27 6.29-23.84 8.55-35.95 1.76-9.42 2.68-19 4.92-28.31s6.94-17.85 10.45-26.76c2.58-6.58 5.93-12.91 8-19.64a57.69 57.69 0 0 0 -1.31-37.19c-6.07-16.71-17.08-29.28-31.63-39a93 93 0 0 0 -28.81-12.49c-12.19-3.16-23.45-9-35.33-13.07a111.64 111.64 0 0 0 -25.83-5.77c-.87-.08-2.14-.41-2.34.84s1.18 1.13 2 1.38c2.71.83 5.4 1.75 6.64 4.62a10.3 10.3 0 0 1 -4.52 12.57c-4 2-10.73-.13-13-4.22a4.9 4.9 0 0 1 -.79-3.19 2.8 2.8 0 0 1 2.23-2.57c1.27-.25 1.84.69 2.28 1.65s.74 1.9 1.13 2.84a3.55 3.55 0 0 0 5.49 1.58c1.86-1.27 2.24-3.16 1.95-5.18a5.11 5.11 0 0 0 -3.93-4.57c-5-1.39-5-1.4-3.73-6.36h-1.12c-.55.64-1.33.55-2.05.7q-4.65 1-9.28 2c-1.64.36-2.5.92-.74 2.42a10.11 10.11 0 0 1 2.62 3.59 10.93 10.93 0 0 1 -4.93 14.13c-2 1.07-1.94 1.83-.43 3.15a13.68 13.68 0 0 1 1.63 1.91 15 15 0 0 1 -2.51 21.21c-5.81 4.42-12.06 3.64-18.26.94a11.37 11.37 0 0 1 -7.15-9c-.38-2.3.29-3.89 2.44-4.68s4 0 5.08 2.16c.66 1.34 1.24 2.72 2 4a7 7 0 0 0 7.45 3.17c2.33-.43 4.61-3 5-5.77a8.65 8.65 0 0 0 -2.39-7.69c-2.09-2.22-4.9-3.36-7.22-5.21-1.84-1.46-1.69-2.78.49-3.7 1.79-.76 3.7-1.25 5.55-1.87a8 8 0 0 0 4.82-4.76c.89-2.07-.13-5.6-2-7.1a3.54 3.54 0 0 0 -4.62-.27c-7 4.9-11.93 11.25-13.49 19.77-.49 2.68-1.55 3.48-4.22 3.45-10.82-.1-20.18 3.74-28.25 10.9-1.29 1.15-1.7 2.05-.32 3.42 3.6 3.6 4.78 8.18 4.64 13-.17 5.66 0 11.35-.83 17-.09.59-.39 1.31.56 1.81 3.58-2.56 7.25-5.1 10.81-7.77 1.5-1.12 2.49-.93 3.4.61a15.21 15.21 0 0 0 1.58 2.31 1.87 1.87 0 0 1 -.32 3.09c-6.11 4.44-12.19 8.89-18.4 13.17-2.26 1.56-3.49.79-3.55-1.94-.06-3.17.14-6.34 0-9.5-.22-6.15 1-12.28.13-18.43a10.15 10.15 0 0 0 -2.68-6c-1.86-1.88-3.07-1.8-4.38.47a63.5 63.5 0 0 0 -6.53 14.47c-3.35 11.94-3.46 23.8 1.49 35.28 5.17 11.78 10.74 23.26 15.99 34.88zm153.27-71.11a4.91 4.91 0 0 1 6.35-.87c1 .78 1.09 1.87 1 3.44-.9 1.87.18 3 2.16 4.14 2.22 1.33 1.88 3.67.88 5.74a5.41 5.41 0 0 1 -6.48 2.35c-2.39-.89-3-2.67-2.28-4.9.63-1.8.17-2.81-1.33-4-1.95-1.45-1.93-4-.3-5.9zm-17.87-23.1c2.61-.94 5.28-1.79 8.13-1.5a5.19 5.19 0 0 1 4.7 3.36c.75 2.1-.33 3.74-2 5.08a15.74 15.74 0 0 1 -9 3.06c-3.63 0-5.72-1.34-6.19-4-.44-2.27 1.37-4.91 4.36-6zm-9.75 34.08c2.9-1.68 5.82-3.32 8.72-5a8.41 8.41 0 0 0 3.65-3.36c.63-1.25.8-2.49-.31-3.6a2.69 2.69 0 0 0 -3.33-.48 4.37 4.37 0 0 1 -1 .46c-1 .19-1.81 2-2.81.76-.86-1.1.33-2.28 1.07-3.19 2.19-2.69 6.62-2.8 9.56-.29 2.46 2.09 2.55 6.2.2 8.76s-5.57 3.66-8.39 5.43c-.61.37-1.48.36-1.79 1.31 1 1.2 2.53 1.35 3.87 1.91s2.64 1.3 1.81 3.32-2 1.06-3.17.61c-2.68-1.08-5.33-2.19-8-3.33-.76-.32-1.72-.62-1.73-1.61s.94-1.29 1.65-1.69zm-23.12-40.88a6.81 6.81 0 0 1 6.64 7.44c-.16 2.68.81 2.88 3 2.58 5.37-.73 9.78 3 9.88 8.08.09 4.49-4.78 10.06-9.23 10.56-4.63.52-8.64-2.6-8.46-7.47.13-3.51-1.16-4.07-4.13-4.38a7.49 7.49 0 0 1 -6.86-8c.45-4.36 5.27-9.01 9.16-8.81zm-13.77-18.4c2.67-.89 5.5 1.69 5.43 5.7-.7 3.5-1.37 7.77-5.36 10.37-2.71 1.77-5.31.87-6.51-2.12-1.78-4.4 1.94-12.46 6.44-13.95zm-23.92 50.84c.77-8.13.85-16.88 2-25.55.42-3.14-.08-6.33.61-9.46.38-1.73 1.1-2.9 2.94-3.26 2.07-.4 2.47 1.26 3.13 2.51 4.14 7.91 8.3 15.81 12.34 23.77.83 1.63 1.67 2.06 3.24 1.13 1.31-.77 2.48-.74 3.2.88s1 3-.83 3.8l.24 5.57c2.78 5.4 2.75 5.38-2.7 8-1.48.7-2.47.54-3.22-.92s-1.53-3-2.3-4.46c-1.52-3-1.91-3.14-4.92-1.6-2.48 1.28-4.86 2.74-7.32 4.06-5.22 2.78-6.49 2-6.41-4.47zm-32.66-11.4a5.79 5.79 0 0 1 6.55-2c2.68.84 3.42 3.23 3.86 5.68a21.09 21.09 0 0 1 0 3.36 17.21 17.21 0 0 1 -3.33 10.43c-1.46 2.06-3.3 3.36-5.86 2.93a5.54 5.54 0 0 1 -5-4.63 19 19 0 0 1 3.78-15.77zm-15.27 1.76a5.8 5.8 0 0 1 -5.58-8.25c1-2 1.43-3.14-1.11-4.4-2.9-1.44-3.75-6.12-2-8.57 2-2.78 7.63-3.72 10-1.67a4.81 4.81 0 0 1 1.2 6.33c-1.41 2.39.06 2.83 1.52 3.3a6.47 6.47 0 0 1 3.18 9.68c-1.21 1.95-4.41 3.58-7.21 3.58zm-2.62 66c.26-6.72 3.36-12.52 6.41-18.3a86.65 86.65 0 0 1 22.94-27.78c3.35-2.66 7-4.92 10.47-7.44 1.29-.94 2-.57 2.6.69 5 10.47 14.26 15.29 24.65 18.57 10.15 3.2 20.66 4.75 31.08 6.69 13 2.42 26 5.06 38 10.84a53.52 53.52 0 0 1 17.67 13c3.91 4.52 4.5 9.9 3.63 15.54-1.36 8.73-2.81 17.45-4.23 26.17-1.66 10.19-3.64 20.34-4.91 30.57a53 53 0 0 1 -16.87 33.13c-7.61 7.13-15 14.48-23.27 20.91s-17.22 10.39-28.2 8.65c-12.35 2.32-22.59-2.79-31.81-10.56-9.61-8.1-19.16-16.32-27.28-26-6.37-7.58-9.13-16.65-10.57-26.32-2.64-17.65-5.53-35.27-8.43-52.88-.84-5.16-2.09-10.26-1.88-15.48z"/><path d="m264.82 226.71c.56 2.26 1.16 2.15 3.82 2.26 3.9.15 7.8.27 11.7.27 3.06 0 2.19 2.5 2.16 4.84 0 3.62-.12 6.67.15 10 .31 3.66 4.37 2.6 7.12 2.61h1.39c2.07.18 2.85-.89 2.85-2.82 0-4.08.25-8.19 0-12.26-.15-2.18.7-2.58 2.44-2.57 4 0 8 0 12 .09 2.57.05 3.78-1 3.57-3.68a35 35 0 0 1 0-5c.11-2-.76-2.77-2.74-3-4.36-.44-8.76-.22-13.1-.58-1.18-.1-1.18.27-1.85-.71-.49-.71-.38-2.25-.4-3.07 0-1.83.28-3.65.22-5.48-.3-9.26 1-7.61-7.93-8-3.18-.14-3.71.41-3.77 3.69-.07 3.91-.07 7.82 0 11.73 0 1.71-.62 2.19-2.27 2.29a107 107 0 0 1 -12.28.2c-3.16-.17-3.49 2.58-3.29 5.3.01.74.05 3.24.21 3.89z"/><path d="m191.64 229c.42.06.87.1 1.35.13 4.12.34 8.68.26 12.81.42 7.47.3 14.22-.09 22 .11 1.59 0 4.63 0 6.42-1 1.36-.8 1-3 1.07-4.43s-.06-2.78-.07-4.18a2.24 2.24 0 0 0 -2.59-2.52c-3 0-5.94-.06-8.91-.07-9.38 0-18.76 0-28.14-.07-7.11-.1-8.19-1-7.65 8 .17 2.72 1.59 3.37 3.71 3.61z"/><path d="m226.23 286.22c0 2.65 1.05 3.63 3.67 3.59 6.61-.1 13.23 0 19.84 0h16.49c8.61 0 7.39.22 7.47-7.31 0-3.6-.17-3.8-3.77-3.81-12.11 0-24.22-.08-36.33-.05-7.8-.01-7.32-1.38-7.37 7.58z"/><path d="m250 270.94a31 31 0 0 1 3.34 0c2.34.25 3.21-.77 3.08-3-.1-1.76-.05-3.53 0-5.3.08-2-.72-2.94-2.78-2.86s-3.9 0-5.86 0c-4.41 0-4.9.59-4.46 5.09.59 5.93.59 5.93 6.68 6.07z"/><path d="m252.13 297c-1.49 0-3-.05-4.45 0-4.08.07-4.44.37-4.39 4.52.11 8 .1 6.72 6.56 6.75 7.59 0 6.38.4 6.6-6.58 0-.18 0-.37 0-.55-.09-4.03-.14-4.08-4.32-4.14z"/><path d="m229.32 138.16c1.83-.9 3.62-1.88 5.45-2.78a1.61 1.61 0 0 0 .78-2.52l-6.36-12.3-.75.1c-1.51 5.61-.94 11.37-.83 17.08.03 1.26 1.07.73 1.71.42z"/><path d="m269.7 131.93c2.16 0 4.42-2.15 4.4-4.18 0-2.58-2.05-4.23-5.13-4.17-3.45.07-4.17.66-4.13 3.36a5 5 0 0 0 4.86 4.99z"/><path d="m259.25 120c2.34 0 3.17-.67 3.17-2.47a4.3 4.3 0 0 0 -4.54-4.52c-2.37.09-3.2 1.69-3.31 3.7s1.99 3.29 4.68 3.29z"/><path d="m173.57 120.6c-2.09.11-2 1.92-2.06 3.33-.09 2.19 1.11 3.41 3.26 3.72 1.58-.38 3.23-.61 3.22-2.78.01-1.95-2.38-4.38-4.42-4.27z"/><path d="m173.58 112.87c-.16-1.82-1.3-2.68-3.13-2.62-1.45 0-2.81.38-2.81 2.28 0 1.67 2 3.37 3.86 3.19 1.65-.17 2.04-1.34 2.08-2.85z"/><path d="m190.34 146.69c1.78.36 2.21-1.59 2.87-2.87 1.65-3.2 2.12-6.73 2.59-10.23.18-1.36.35-3.06-1.39-3.53s-2.46 1.14-3 2.32a31.08 31.08 0 0 0 -2.56 10.26c.03 1.73-.32 3.68 1.49 4.05z"/><path d="m242.51 103.63a1.74 1.74 0 0 0 2.16-.84 18.82 18.82 0 0 0 3.38-8.58c-.14-.58.17-1.43-.77-1.8s-1.61.12-2.12.85a22.52 22.52 0 0 0 -3.3 8.23c-.21.88-.31 1.75.65 2.14z"/><path d="m292.47 121.81a21.9 21.9 0 0 0 8.53-2.13c.79-.42 1.85-.87 1.55-2s-1.45-.93-2.39-1c-2.86.5-5.88.6-8.44 2.31-.66.44-1.52.95-1.11 2a1.67 1.67 0 0 0 1.86.82z"/><path d="m314 148.2c-.09 1.48.75 2.23 2.23 2.2 1.09 0 2-.3 2.19-1.58a2.62 2.62 0 0 0 -2.55-2.55c-1.41-.15-1.87.85-1.87 1.93z"/><path d="m313.73 142.42c1.15.2 1.36-.61 1.38-1.53a1.76 1.76 0 0 0 -1.81-2 1.43 1.43 0 0 0 -1.67 1.42c-.09 1.46.98 1.91 2.1 2.11z"/></g></svg>