<svg enable-background="new 0 0 512 512" viewBox="0 0 512 512" xmlns="http://www.w3.org/2000/svg"><path d="m268.1 192.8h-3.9v-47.6c0-3.1-2.1-5.7-5-6.6-3-.8-6.1.5-7.6 3.1l-9.5 16.1c-1.9 3.2-.8 7.4 2.4 9.3 2 1.2 4.3 1.2 6.2.4v25.2h-3.9c-3.8 0-6.8 3-6.8 6.8s3 6.8 6.8 6.8h21.5c3.8 0 6.8-3 6.8-6.8s-3.2-6.7-7-6.7z"/><path d="m188.7 360h-14.7c8.4-8.7 17.5-20.9 17.5-33.2 0-12.6-8.5-21.1-21.1-21.1-11.7 0-21.1 9.5-21.1 21.1 0 3.8 3 6.8 6.8 6.8s6.8-3 6.8-6.8c0-4.2 3.4-7.6 7.6-7.6 6.8 0 7.5 4.3 7.5 7.6 0 12.6-19.2 29.6-25.9 34.6-2.4 1.7-3.3 4.8-2.4 7.6s3.5 4.7 6.5 4.7h32.7c3.8 0 6.8-3 6.8-6.8s-3.2-6.9-7-6.9z"/><path d="m359.1 326.1c0-11.2-9.1-20.4-20.4-20.4h-11.8c-3.8 0-6.8 3-6.8 6.8s3 6.8 6.8 6.8h11.8c3.7 0 6.8 3 6.8 6.8 0 3.4-2.5 6.2-5.8 6.7-.3 0-.7 0-1 0h-11.8c-3.8 0-6.8 3-6.8 6.8s3 6.8 6.8 6.8h4.7c.4.1.8.1 1.2.1h5.9 1c3.3.5 5.8 3.3 5.8 6.7 0 3.7-3 6.8-6.8 6.8h-11.8c-3.8 0-6.8 3-6.8 6.8s3 6.8 6.8 6.8h11.8c11.2 0 20.4-9.1 20.4-20.4 0-5.2-1.9-9.9-5.1-13.5 3.1-3.7 5.1-8.4 5.1-13.6z"/><path d="m396 249.2h-56.4c4.3-5.7 6.8-12.7 6.8-20.4v-30.4c0-3.8-3-6.8-6.8-6.8s-6.8 3-6.8 6.8v30.4c0 11.2-9.1 20.4-20.4 20.4h-112.8c-11.2 0-20.4-9.1-20.4-20.4v-112.8c0-11.2 9.1-20.4 20.4-20.4h112.8c11.2 0 20.4 9.1 20.4 20.4v25.8c0 3.8 3 6.8 6.8 6.8s6.8-3 6.8-6.8v-25.8c0-18.7-15.2-34-34-34h-112.8c-18.7 0-34 15.2-34 34v112.8c0 7.6 2.5 14.7 6.8 20.4h-56.4c-18.7 0-34 15.2-34 34v112.8c0 18.7 15.2 34 34 34h112.8c11.1 0 21-5.4 27.2-13.6 6.2 8.3 16.1 13.6 27.2 13.6h112.8c18.7 0 34-15.2 34-34v-112.8c0-18.8-15.2-34-34-34zm-146.8 146.8c0 11.2-9.1 20.4-20.4 20.4h-112.8c-11.2 0-20.4-9.1-20.4-20.4v-112.8c0-11.2 9.1-20.4 20.4-20.4h112.8c11.2 0 20.4 9.1 20.4 20.4zm167.2 0c0 11.2-9.1 20.4-20.4 20.4h-112.8c-11.2 0-20.4-9.1-20.4-20.4v-112.8c0-11.2 9.1-20.4 20.4-20.4h112.8c11.2 0 20.4 9.1 20.4 20.4z"/><path d="m344.4 167.6c-1.3-1.3-3-2-4.8-2s-3.5.7-4.8 2-2 3-2 4.8.7 3.5 2 4.8 3 2 4.8 2 3.5-.7 4.8-2 2-3 2-4.8-.7-3.5-2-4.8z"/></svg>